name C:\Users\u0101727\Documents\MyRepositories\upper-imu-dc\Results\main_tracking\Case_10\FLX01_linearAccelerations_bodyFrame.mot
datacolumns 4
datarows 58
range 2.01000000 2.58000000
endheader 
time	radius_imu_x	radius_imu_y	radius_imu_z	
          2.01000000	         -3.42218000	         -3.69979585	          7.25545466	
          2.02000000	         -3.12624454	         -3.76375160	          7.25027132	
          2.03000000	         -2.97055106	         -3.84584408	          7.21171492	
          2.04000000	         -2.97131887	         -3.95342962	          7.13983997	
          2.05000000	         -3.10695718	         -4.08489913	          7.04410054	
          2.06000000	         -3.32462408	         -4.23035669	          6.93977285	
          2.07000000	         -3.56127882	         -4.37604443	          6.84182078	
          2.08000000	         -3.76954513	         -4.51017969	          6.75943131	
          2.09000000	         -3.93618120	         -4.62692160	          6.69345545	
          2.10000000	         -4.08039187	         -4.72664839	          6.63790857	
          2.11000000	         -4.22765426	         -4.81326081	          6.58533198	
          2.12000000	         -4.37782808	         -4.89093923	          6.53265939	
          2.13000000	         -4.49580029	         -4.96269643	          6.48326035	
          2.14000000	         -4.53010795	         -5.03114546	          6.44457192	
          2.15000000	         -4.44238844	         -5.10012924	          6.42371994	
          2.16000000	         -4.23196146	         -5.17542692	          6.42268392	
          2.17000000	         -3.94698173	         -5.26377370	          6.43408955	
          2.18000000	         -3.67437703	         -5.37046616	          6.44046857	
          2.19000000	         -3.50701881	         -5.49664321	          6.41993875	
          2.20000000	         -3.50592845	         -5.63776034	          6.35603682	
          2.21000000	         -3.68302293	         -5.78442145	          6.24468487	
          2.22000000	         -4.00919831	         -5.92537266	          6.09414484	
          2.23000000	         -4.43340683	         -6.05122847	          5.91973324	
          2.24000000	         -4.89977059	         -6.15730845	          5.73737565	
          2.25000000	         -5.35808941	         -6.24448960	          5.55903799	
          2.26000000	         -5.76838943	         -6.31785047	          5.39094778	
          2.27000000	         -6.10163766	         -6.38394179	          5.23396566	
          2.28000000	         -6.33843631	         -6.44818493	          5.08511231	
          2.29000000	         -6.46680655	         -6.51346807	          4.93961064	
          2.30000000	         -6.47909050	         -6.57989644	          4.79317191	
          2.31000000	         -6.36834951	         -6.64501628	          4.64417882	
          2.32000000	         -6.12619413	         -6.70420478	          4.49513685	
          2.33000000	         -5.74429879	         -6.75164149	          4.35271992	
          2.34000000	         -5.22075399	         -6.78235339	          4.22595312	
          2.35000000	         -4.57032516	         -6.79509101	          4.12262692	
          2.36000000	         -3.83483547	         -6.79476355	          4.04490531	
          2.37000000	         -3.08755044	         -6.79271070	          3.98600159	
          2.38000000	         -2.42347724	         -6.80389890	          3.93079939	
          2.39000000	         -1.93177373	         -6.84189571	          3.86246033	
          2.40000000	         -1.66406439	         -6.91411988	          3.77188695	
          2.41000000	         -1.62142951	         -7.01989179	          3.66297517	
          2.42000000	         -1.76422856	         -7.15184582	          3.55052483	
          2.43000000	         -2.03085726	         -7.29917918	          3.45379268	
          2.44000000	         -2.35484809	         -7.45070732	          3.38991524	
          2.45000000	         -2.67776357	         -7.59655193	          3.36963498	
          2.46000000	         -2.95690412	         -7.72845063	          3.39600930	
          2.47000000	         -3.16709880	         -7.83941721	          3.46547880	
          2.48000000	         -3.29825419	         -7.92374180	          3.56994798	
          2.49000000	         -3.35194133	         -7.97809790	          3.69868334	
          2.50000000	         -3.33870710	         -8.00346576	          3.83963936	
          2.51000000	         -3.27552071	         -8.00624284	          3.98046821	
          2.52000000	         -3.18260565	         -7.99703278	          4.10950852	
          2.53000000	         -3.07986626	         -7.98747976	          4.21675794	
          2.54000000	         -2.98358013	         -7.98702219	          4.29464239	
          2.55000000	         -2.90405442	         -8.00119174	          4.33844149	
          2.56000000	         -2.84481517	         -8.03193275	          4.34634449	
          2.57000000	         -2.80348846	         -8.07923442	          4.31923129	
          2.58000000	         -2.77387531	         -8.14253736	          4.26035292	
